<?xml version="1.0" encoding="UTF-8" standalone="no"?>
<svg
   width="240.892"
   height="240.892"
   viewBox="0 0 63.736 63.736"
   xml:space="preserve"
   version="1.1"
   id="svg4"
   sodipodi:docname="small_pill only bg.svg"
   inkscape:version="1.4 (e7c3feb1, 2024-10-09)"
   xmlns:inkscape="http://www.inkscape.org/namespaces/inkscape"
   xmlns:sodipodi="http://sodipodi.sourceforge.net/DTD/sodipodi-0.dtd"
   xmlns="http://www.w3.org/2000/svg"
   xmlns:svg="http://www.w3.org/2000/svg"><defs
     id="defs4" /><sodipodi:namedview
     id="namedview4"
     pagecolor="#505050"
     bordercolor="#eeeeee"
     borderopacity="1"
     inkscape:showpageshadow="0"
     inkscape:pageopacity="0"
     inkscape:pagecheckerboard="0"
     inkscape:deskcolor="#505050"
     inkscape:zoom="0.86874379"
     inkscape:cx="166.90767"
     inkscape:cy="119.13754"
     inkscape:window-width="1552"
     inkscape:window-height="728"
     inkscape:window-x="0"
     inkscape:window-y="25"
     inkscape:window-maximized="0"
     inkscape:current-layer="svg4" /><path
     d="m 31.87,-29.868 c -33.956,0 -61.738,27.78 -61.738,61.736 0,33.954 27.782,61.736 61.736,61.736 33.954,0 61.736,-27.78 61.736,-61.736 0,-33.954 -27.78,-61.736 -61.736,-61.736 z"
     style="fill:#eb0408;fill-opacity:1;stroke:#000000;stroke-width:4;stroke-dasharray:none;stroke-opacity:1"
     id="path1" /><path
     style="fill:#4d93ed;fill-opacity:1;stroke:none;stroke-width:2.50377;stroke-linejoin:bevel;stroke-dasharray:none;stroke-dashoffset:0;stroke-opacity:1;paint-order:fill markers stroke"
     d="m93.866 139.983 12.51-5.578 4.79.845 3.043 2.761 1.916 3.663-.733 4.846-1.972 2.761-12.848 6.199.902-4.17-1.916-5.184-2.31-3.663z"
     transform="translate(-64.151 -116.632)"
     id="path2" /><path
     d="M15.975 29.235a8.733 8.733 0 0 0-4.99 7.868c.001 1.281.277 2.52.821 3.679l.362.777c2.034 4.342 7.219 6.221 11.562 4.19l24.008-11.231.023-.011a8.733 8.733 0 0 0 4.99-7.869c0-1.281-.277-2.52-.822-3.68l-.363-.775a8.632 8.632 0 0 0-4.914-4.486 8.633 8.633 0 0 0-6.647.291zm-2.471 11.703-.362-.777a7.106 7.106 0 0 1-.683-3.058 7.26 7.26 0 0 1 4.166-6.544l12-5.615.004-.002c.855-.403 1.994-.056 3.211.969 1.215 1.025 2.363 2.609 3.23 4.46.868 1.851 1.348 3.75 1.355 5.38.001 1.565-.464 2.647-1.31 3.045l-.005.002-12.004 5.615c-3.607 1.691-7.916.13-9.602-3.475zm36.728-18.13.363.775a7.13 7.13 0 0 1 .682 3.057 7.253 7.253 0 0 1-4.145 6.535l.313.666-.334-.657-9.484 4.436a6.997 6.997 0 0 0 .265-1.913c-.006-1.801-.537-3.917-1.493-5.958-.956-2.042-2.24-3.803-3.616-4.962a6.981 6.981 0 0 0-1.637-1.023l9.481-4.436a7.183 7.183 0 0 1 5.522-.246 7.162 7.162 0 0 1 4.082 3.726z"
     id="path3" /><path
     d="M34.533 36.879a.737.737 0 0 0-.98-.353l-11.394 5.367a.737.737 0 0 0 .628 1.333l11.394-5.365a.741.741 0 0 0 .352-.982z"
     id="path4" /></svg>
