<svg width="240.892" height="240.892" viewBox="0 0 63.736 63.736" xml:space="preserve"
     xmlns="http://www.w3.org/2000/svg"><path d="M96.02 117.632c-16.978 0-30.869 13.89-30.869 30.868 0 16.977 13.891 30.868 30.868 30.868 16.977 0 30.868-13.89 30.868-30.868 0-16.977-13.89-30.868-30.868-30.868z" style="fill:#eb0408;fill-opacity:1;stroke:#000;stroke-width:2;stroke-dasharray:none;stroke-opacity:1" transform="translate(-64.151 -116.632)"/>
  <path
    d="M71.004 161.713c7.267 13.758 24.47 19.07 38.229 11.802 13.758-7.267 19.069-24.47 11.801-38.228-7.267-13.758-24.47-19.07-38.228-11.802-13.758 7.267-19.069 24.47-11.802 38.228z"
    style="fill:none;fill-opacity:1;stroke:none;stroke-width:1.83307;stroke-dasharray:none;stroke-opacity:1"
    transform="translate(-64.151 -116.632)" />
  <path
    style="fill:#4d93ed;fill-opacity:1;stroke:none;stroke-width:5.66929;stroke-linejoin:bevel;stroke-dasharray:none;stroke-dashoffset:0;stroke-opacity:1;paint-order:fill markers stroke"
    d="m53.81 30.47 31.008.64 8.997 6.353 3.57 8.592.39 9.35-6.175 9.221-6.704 3.754-32.298.303 5.87-7.672 1.076-12.468-1.2-9.732z"
    transform="rotate(-25.219 56.566 -7.049) scale(.35278)" />
  <path
    d="M72.43 146.347q.12.31.24.822.117.512.115 1.02-.003 1.179-.643 1.844-.644.665-1.772.662-1.076-.003-1.732-.677-.659-.675-.655-1.878 0-.456.085-.868.082-.412.328-.917l1.082.003v.134q-.065.086-.183.253-.122.168-.206.322-.1.18-.172.422-.071.238-.072.508 0 .316.091.574.093.257.285.462.185.196.473.312.285.112.66.113.766.002 1.173-.403.408-.405.41-1.199 0-.068-.003-.149-.003-.084-.01-.152l-.904-.002-.003.921-.871-.002.005-2.13zm-.967-5.556q1.079.234 1.58.99.5.755.264 1.846-.236 1.088-1.004 1.569-.77.48-1.849.246-1.088-.236-1.584-.99-.499-.756-.263-1.844.235-1.085 1.003-1.568.765-.485 1.853-.249zm.808 1.79q-.17-.214-.43-.357-.265-.143-.643-.225-.406-.088-.712-.056-.305.033-.513.146-.216.115-.342.3-.125.183-.172.4-.048.222-.012.436.037.211.183.414.137.188.416.35.277.159.67.244.403.088.708.058.302-.032.514-.145.211-.113.34-.298.13-.184.178-.408.048-.225.008-.446-.044-.222-.193-.413zm1.41-6.835q1.004.459 1.333 1.305.327.844-.137 1.86-.463 1.012-1.315 1.318-.855.305-1.86-.154-1.012-.462-1.335-1.306-.327-.844.136-1.857.46-1.01 1.314-1.318.851-.31 1.864.152zm.407 1.922q-.12-.246-.344-.44-.228-.197-.58-.358-.378-.172-.683-.206-.305-.034-.533.032-.235.067-.398.221-.16.152-.254.355-.094.205-.104.422-.01.214.09.444.094.213.332.43.236.215.603.382.375.171.679.208.302.032.533-.033.23-.065.396-.218.165-.152.26-.361.096-.209.103-.434.005-.226-.1-.444zm2.739-6.275q.518.385.753.926.233.54.184 1.063-.037.393-.212.765t-.504.815l-.97 1.308-3.708-2.751.998-1.345q.336-.453.657-.725.319-.273.624-.393.519-.21 1.08-.134.56.072 1.098.471zm-.74.983q-.367-.271-.726-.329-.359-.062-.72.118-.181.093-.32.23-.141.13-.37.44l-.18.241 2.322 1.722.179-.242q.253-.34.341-.522.086-.184.117-.397.044-.372-.114-.679-.161-.308-.53-.582zm4.52-6.166-1.658 1.327.536.67 1.538-1.23.557.698-1.537 1.23 1.232 1.54-.925.74-2.884-3.605 2.583-2.067zm5.562-1.496q.517.975.263 1.847-.255.869-1.241 1.392-.984.521-1.846.245-.864-.28-1.381-1.254-.522-.984-.265-1.85.255-.869 1.239-1.39.98-.52 1.846-.245.863.272 1.385 1.255zm-.847 1.772q.055-.267-.005-.559-.061-.294-.243-.636-.194-.367-.416-.58-.221-.212-.442-.298-.227-.09-.45-.067-.22.022-.417.126-.2.106-.34.272-.138.164-.199.407-.056.226 0 .544.058.313.247.67.193.363.412.577.22.21.442.3.223.088.447.068.224-.021.427-.129.203-.107.346-.281.141-.177.191-.414zm4.035-3.68q-.048-.166-.151-.265-.103-.1-.29-.12-.13-.015-.287.021-.158.033-.364.092l-.414.12.344 1.194.352-.101q.274-.08.45-.16.178-.08.275-.21.093-.127.115-.253.024-.13-.03-.317zm2.671 2.565-1.397.402-1.679-1.278-.527.152.469 1.626-1.138.328-1.278-4.436 1.918-.553q.394-.113.69-.15.295-.037.586.04.293.078.508.274.216.193.32.55.14.492 0 .868-.136.375-.5.702zm6.273-2.508q0 .645-.293 1.156-.294.51-.744.783-.337.205-.74.286-.403.08-.955.082l-1.628.002-.006-4.617 1.675-.002q.564 0 .973.095.41.092.69.266.477.29.75.786.277.493.278 1.163zm-1.231-.008q0-.456-.169-.778-.164-.326-.524-.508-.183-.09-.375-.12-.19-.035-.574-.034h-.3l.003 2.89h.3q.425-.001.623-.038.199-.04.388-.143.325-.187.477-.497.151-.313.15-.772zm5.027 3.058-3.28-.628.87-4.535 3.28.63-.169.876-2.116-.406-.15.783 1.964.377-.168.877-1.964-.377-.215 1.12 2.116.407zm5.075 1.978-1.093-.456 1.19-2.853-1.562 1.522-.758-.316-.018-2.181-1.19 2.853-1.036-.433 1.778-4.26 1.276.532.067 2.538 1.847-1.739 1.277.533zm5.673 1.159q-.642.897-1.535 1.058-.892.16-1.8-.49-.905-.648-1.042-1.543-.135-.898.507-1.796.648-.905 1.538-1.061.891-.159 1.796.49.903.645 1.043 1.542.141.894-.507 1.8zm-1.963.031q.264-.07.498-.253.236-.186.461-.501.242-.338.334-.63.091-.294.07-.53-.02-.244-.14-.433-.119-.187-.3-.317-.184-.131-.395-.183-.208-.05-.453.004-.227.05-.486.243-.255.19-.49.519-.24.335-.334.626-.09.29-.07.53.02.238.138.43.119.191.305.325.187.133.406.184.221.048.456-.013zm2.336 3.82q-.352-.375-.541-.798-.187-.42-.182-.854.005-.434.213-.869.21-.432.64-.836.4-.376.837-.562.438-.186.885-.177.43.01.855.217.428.21.79.595.2.212.334.405.138.193.236.373.1.192.16.365.065.173.107.308l-.816.767-.093-.1q-.005-.114-.022-.281-.015-.165-.057-.355-.045-.192-.131-.383-.086-.192-.241-.356-.173-.183-.386-.293-.212-.112-.477-.127-.254-.012-.545.104-.289.119-.591.403-.316.298-.446.586-.127.29-.122.54.005.254.11.475.108.218.263.383.149.158.34.267.195.111.4.166.169.049.333.074.163.024.275.034l.085.09-.804.757q-.175-.073-.333-.142-.158-.068-.314-.16-.202-.121-.363-.242-.16-.121-.399-.374zm5.57 1.98q.146-.093.213-.22.066-.127.033-.312-.023-.128-.102-.27-.077-.142-.192-.322l-.231-.363-1.049.668.197.309q.153.24.28.387.127.147.281.204.148.053.274.038.131-.014.296-.119zm-1.702 3.288-.782-1.226.75-1.971-.294-.463-1.428.91-.636-.998 3.892-2.483 1.074 1.684q.22.345.339.618.12.273.127.574.009.303-.118.564-.123.263-.437.463-.431.275-.832.247-.398-.025-.815-.282zm1.553 4.129-.447-1.147.754-.637-.621-1.595-.986.041-.435-1.118 4.92-.086.498 1.277zm.991-2.36 1.337-1.129-1.749.072zm-.687 4.714q-.094-.506-.024-.964.07-.454.31-.817.239-.363.65-.615.41-.25.99-.356.54-.1 1.008-.02.47.081.84.331.356.24.602.646.245.408.341.927.053.286.062.521.012.237-.003.442-.02.215-.063.393-.04.181-.077.317l-1.101.204-.025-.135q.058-.099.134-.248.077-.147.144-.33.067-.185.098-.393.03-.207-.01-.43-.046-.247-.166-.455-.118-.208-.332-.364-.208-.148-.515-.208-.307-.057-.715.019-.427.079-.692.25-.264.175-.395.389-.133.217-.164.459-.028.241.013.464.04.214.142.409.103.199.245.355.116.133.24.243.125.11.213.178l.023.122-1.086.2q-.108-.156-.203-.3-.096-.142-.177-.304-.105-.211-.174-.4-.07-.189-.133-.53zm5.026 6.137-2.832-1.7h-1.786l-.001-1.19 1.73-.001 2.886-1.732v1.351l-1.785 1 1.787.963z"
    style="font-weight:700;font-size:6.35px;font-family:Damascus;-inkscape-font-specification:'Damascus, Bold';letter-spacing:-.396875px;fill:#fff;stroke-width:.499999;stroke-linejoin:bevel;paint-order:fill markers stroke"
    aria-label="GOOD FOR DEMOCRACY" transform="translate(-64.151 -116.632)" />
  <path
    style="font-weight:700;font-size:6.35px;font-family:Damascus;-inkscape-font-specification:'Damascus, Bold';stroke-width:.5;stroke-linejoin:bevel;paint-order:fill markers stroke"
    d="M74.56 164.82q-.282.182-.577.21-.294.03-.567-.074-.32-.12-.57-.349-.25-.227-.522-.65l-1.09-1.694 3.884-2.497.969 1.507q.302.47.41.706.11.24.14.522.03.294-.091.523-.118.23-.36.386-.282.181-.594.172-.31-.011-.604-.205l-.02.013q.169.43.074.804-.093.377-.482.626zm.771-2.309q.097-.062.161-.174.066-.109.035-.261-.03-.137-.132-.303-.099-.165-.288-.46l-.06-.093-.822.528.1.156q.153.238.268.4.115.162.222.23.147.096.268.078.123-.02.248-.1zm-1.423 1.261q.185-.119.238-.255.056-.136-.005-.34-.042-.14-.172-.347-.13-.208-.274-.432l-.14-.219-.968.622.047.073q.272.423.392.604.12.18.284.292.166.115.31.103.147-.01.288-.1zm2.922 5.643-.835-.904.469-.868-1.162-1.257-.902.398-.814-.881 4.549-1.88.93 1.007zm.06-2.558.831-1.54-1.601.706zm5.335 3.761q-.387.516-.93.749-.54.23-1.064.178-.393-.039-.764-.216t-.813-.509l-1.302-.976 2.77-3.694 1.34 1.005q.451.339.721.661.272.32.39.626.208.52.128 1.08-.075.56-.476 1.096zm-.98-.746q.274-.364.333-.723.064-.359-.114-.721-.092-.182-.227-.322-.131-.14-.439-.371l-.24-.18-1.734 2.311.24.18q.34.255.521.345.183.086.396.118.372.047.68-.11.309-.16.584-.527zm6.828 1.909-1.955-.831-.336.79 1.812.77-.35.822-1.811-.77-.772 1.815-1.09-.463 1.806-4.25 3.045 1.295zm4.228 2.514q-.258 1.073-1.025 1.558-.766.483-1.851.222-1.083-.26-1.546-1.037-.463-.781-.206-1.854.26-1.083 1.026-1.562.766-.483 1.848-.223 1.08.26 1.546 1.038.468.775.208 1.858zm-1.807.768q.218-.165.366-.423.148-.26.239-.637.097-.404.071-.71-.025-.306-.134-.517-.11-.218-.293-.348-.179-.129-.396-.181-.22-.053-.435-.021-.212.032-.418.173-.191.133-.36.408-.164.273-.258.665-.096.401-.074.706.026.303.134.517.109.214.29.347.182.133.405.187.223.053.445.017.223-.039.418-.183zm4.942-1.494q.01-.173-.055-.3-.064-.129-.234-.21-.118-.055-.278-.073-.16-.021-.374-.033l-.43-.023-.068 1.241.366.02q.284.016.478-.002.193-.017.329-.11.129-.089.19-.2.066-.115.076-.31zm1.682 3.299-1.452-.079-1.166-1.758-.548-.03-.091 1.69-1.183-.063.25-4.61 1.993.107q.41.023.7.085.292.062.54.23.253.17.39.426.142.253.122.624-.027.511-.283.82-.253.31-.704.5zm5.26-4.569-2.088.39.158.844 1.935-.36.164.877-1.936.36.362 1.94-1.165.216-.846-4.538 3.252-.606zm5.496 2-1.157.417-.617-.77-1.61.581.016.987-1.13.407.039-4.922 1.29-.465zm-2.333-1.05-1.095-1.366.028 1.75zm4.781-.233q-.448.253-.903.336-.453.081-.873-.026-.42-.108-.793-.414-.37-.307-.66-.82-.27-.477-.347-.947-.077-.47.038-.902.111-.415.415-.779.306-.365.765-.625.253-.143.472-.228.22-.09.42-.141.21-.051.392-.069.183-.022.324-.03l.551.974-.118.067q-.112-.022-.279-.045-.164-.025-.358-.03-.197-.001-.404.037-.206.038-.403.15-.219.123-.376.305-.159.179-.236.433-.072.243-.029.554.047.308.251.67.214.378.463.572.251.192.495.247.249.055.488.006.238-.053.435-.164.188-.107.34-.268.154-.162.256-.347.088-.153.15-.306.064-.154.1-.26l.108-.06.543.96q-.113.153-.217.29-.104.137-.23.266-.166.168-.321.296-.156.127-.459.298zm4.052-2.947-2.14 1.653-.5-.647.599-.463-1.822-2.358-.599.463-.5-.648 2.139-1.653.5.648-.598.462 1.822 2.358.598-.462zm2.274-4.295q.49.475.393 1.189-.097.71-.788 1.421-.4.412-.768.65-.37.234-.74.393l-.794-.771.09-.094q.469-.06.9-.276.433-.22.726-.522.076-.078.186-.218t.156-.25q.055-.137.055-.257.003-.123-.115-.238-.11-.105-.278-.087-.168.013-.384.15-.225.144-.466.316-.241.168-.478.292-.542.287-.952.247-.411-.044-.756-.379-.463-.449-.353-1.146.11-.7.743-1.353.317-.327.69-.582.374-.26.696-.401l.764.74-.089.092q-.355.044-.744.232-.39.184-.684.486-.103.107-.191.23-.088.117-.143.253-.051.12-.043.249.006.127.093.211.132.128.3.097.166-.034.494-.256l.412-.278q.2-.134.45-.267.494-.26.885-.23.39.024.733.357zm4.254-3.652-.653.989-2.58-1.704 1.203 1.82-.453.686-2.145-.392 2.58 1.704-.619.936-3.853-2.543.762-1.154 2.505.409-1.362-2.14.762-1.154z"
    transform="translate(-64.151 -117.161)" aria-label="BAD FOR FACISM" />
  <path
    d="M19.173 29.765a6.976 6.976 0 0 0-3.986 6.285c0 1.023.221 2.013.656 2.938l.29.621a6.956 6.956 0 0 0 9.234 3.348l19.178-8.972.018-.01a6.976 6.976 0 0 0 3.986-6.285 6.88 6.88 0 0 0-.656-2.94l-.29-.618a6.895 6.895 0 0 0-3.925-3.584 6.896 6.896 0 0 0-5.31.233zm-1.974 9.348-.29-.62a5.676 5.676 0 0 1-.545-2.443 5.8 5.8 0 0 1 3.328-5.228l9.586-4.485.002-.001c.684-.322 1.594-.045 2.566.773.97.82 1.888 2.084 2.58 3.564.693 1.478 1.076 2.994 1.082 4.297 0 1.25-.37 2.114-1.046 2.432l-.004.002-9.59 4.485a5.772 5.772 0 0 1-7.669-2.776zM46.537 24.63l.29.619c.362.772.546 1.593.545 2.442 0 2.224-1.3 4.272-3.312 5.22l.251.532-.267-.524-7.575 3.543c.126-.457.212-.953.21-1.528-.004-1.44-.428-3.13-1.191-4.76-.764-1.63-1.79-3.038-2.889-3.963a5.577 5.577 0 0 0-1.308-.817l7.574-3.544a5.737 5.737 0 0 1 4.41-.196 5.72 5.72 0 0 1 3.262 2.976z" />
  <path
    d="M33.996 35.87a.589.589 0 0 0-.783-.281l-9.1 4.287a.589.589 0 0 0 .501 1.065l9.101-4.286a.592.592 0 0 0 .281-.784z" />
  <path
    d="M72.825 151.016c-1.384-12.757 7.922-24.327 20.679-25.71 12.756-1.384 24.326 7.922 25.71 20.678 1.384 12.757-7.922 24.327-20.679 25.71-12.757 1.384-24.327-7.922-25.71-20.678z"
    style="fill:none;fill-opacity:1;stroke:none;stroke-width:1.5117;stroke-dasharray:none;stroke-opacity:1"
    transform="translate(-64.151 -116.632)" /></svg>
