<svg width="240.892" height="240.892" viewBox="0 0 63.736 63.736" xml:space="preserve" xmlns="http://www.w3.org/2000/svg">
  <path d="M96.02 117.632c-16.978 0-30.869 13.89-30.869 30.868 0 16.977 13.891 30.868 30.868 30.868 16.977 0 30.868-13.89 30.868-30.868 0-16.977-13.89-30.868-30.868-30.868z" style="fill:#eb0408;fill-opacity:1;stroke:#000;stroke-width:2;stroke-dasharray:none;stroke-opacity:1" transform="translate(-64.151 -116.632)"/>
  <path d="M71.004 161.713c7.267 13.758 24.47 19.07 38.229 11.802 13.758-7.267 19.069-24.47 11.801-38.228-7.267-13.758-24.47-19.07-38.228-11.802-13.758 7.267-19.069 24.47-11.802 38.228z" style="fill:none;fill-opacity:1;stroke:none;stroke-width:1.83307;stroke-dasharray:none;stroke-opacity:1" transform="translate(-64.151 -116.632)"/>
  <path style="fill:#4d93ed;fill-opacity:1;stroke:none;stroke-width:5.66929;stroke-linejoin:bevel;stroke-dasharray:none;stroke-dashoffset:0;stroke-opacity:1;paint-order:fill markers stroke" d="m53.81 30.47 31.008.64 8.997 6.353 3.57 8.592.39 9.35-6.175 9.221-6.704 3.754-32.298.303 5.87-7.672 1.076-12.468-1.2-9.732z" transform="rotate(-25.219 56.566 -7.049) scale(.35278)"/>
  <path d="M19.173 29.765a6.976 6.976 0 0 0-3.986 6.285c0 1.023.221 2.013.656 2.938l.29.621a6.956 6.956 0 0 0 9.234 3.348l19.178-8.972.018-.01a6.976 6.976 0 0 0 3.986-6.285 6.88 6.88 0 0 0-.656-2.94l-.29-.618a6.895 6.895 0 0 0-3.925-3.584 6.896 6.896 0 0 0-5.31.233zm-1.974 9.348-.29-.62a5.676 5.676 0 0 1-.545-2.443 5.8 5.8 0 0 1 3.328-5.228l9.586-4.485.002-.001c.684-.322 1.594-.045 2.566.773.97.82 1.888 2.084 2.58 3.564.693 1.478 1.076 2.994 1.082 4.297 0 1.25-.37 2.114-1.046 2.432l-.004.002-9.59 4.485a5.772 5.772 0 0 1-7.669-2.776zM46.537 24.63l.29.619c.362.772.546 1.593.545 2.442 0 2.224-1.3 4.272-3.312 5.22l.251.532-.267-.524-7.575 3.543c.126-.457.212-.953.21-1.528-.004-1.44-.428-3.13-1.191-4.76-.764-1.63-1.79-3.038-2.889-3.963a5.577 5.577 0 0 0-1.308-.817l7.574-3.544a5.737 5.737 0 0 1 4.41-.196 5.72 5.72 0 0 1 3.262 2.976z"/>
  <path d="M33.996 35.87a.589.589 0 0 0-.783-.281l-9.1 4.287a.589.589 0 0 0 .501 1.065l9.101-4.286a.592.592 0 0 0 .281-.784z"/>
  <path d="M72.825 151.016c-1.384-12.757 7.922-24.327 20.679-25.71 12.756-1.384 24.326 7.922 25.71 20.678 1.384 12.757-7.922 24.327-20.679 25.71-12.757 1.384-24.327-7.922-25.71-20.678z" style="fill:none;fill-opacity:1;stroke:none;stroke-width:1.5117;stroke-dasharray:none;stroke-opacity:1" transform="translate(-64.151 -116.632)"/>
</svg>