<svg xmlns="http://www.w3.org/2000/svg" viewBox="0 0 100 100" role="img" aria-label="Jo Peace sticker">
  <title>Jo Peace Sticker Service</title>
  <!-- The same glyph the globe draws, straight from sticker-icon.ts. Gold card,
       near-black line art: legible on a light tab strip and a dark one, so no
       prefers-color-scheme switching is needed. -->
  <path d="m80.066 3.125h-60.133c-9.2695 0-16.809 7.5391-16.809 16.809v60.133c0 9.2695 7.5391 16.809 16.809 16.809h44.098c0.82812 0 1.625-0.32812 2.2109-0.91406l29.719-29.719c0.58594-0.58594 0.91406-1.3828 0.91406-2.2109v-44.098c0-9.2695-7.5391-16.809-16.809-16.809z" fill="#e8b33a"/>
  <g fill="#0b0b0c">
    <path d="s interior is a
  // hole — the same nonzero fill rule SVG and canvas both default to.
   +
     +
     +
     +
     +
    "/>
    <path d="m73.559 52.426c1.3398-1.0859 1.5469-3.0547 0.45703-4.3945s-3.0586-1.543-4.3945-0.45703c-5.7852 4.6953-12.57 7.1758-19.621 7.1758s-13.836-2.4805-19.621-7.1758c-1.3398-1.0859-3.3086-0.88281-4.3945 0.45703s-0.88281 3.3086 0.45703 4.3945c6.9141 5.6094 15.059 8.5742 23.559 8.5742s16.648-2.9648 23.559-8.5742z"/>
    <path d="m37.25 38.953c1.7266 0 3.125-1.3984 3.125-3.125v-10.297c0-1.7266-1.3984-3.125-3.125-3.125s-3.125 1.3984-3.125 3.125v10.297c0 1.7266 1.3984 3.125 3.125 3.125z"/>
    <path d="m62.75 38.953c1.7266 0 3.125-1.3984 3.125-3.125v-10.297c0-1.7266-1.3984-3.125-3.125-3.125s-3.125 1.3984-3.125 3.125v10.297c0 1.7266 1.3984 3.125 3.125 3.125z"/>
  </g>
</svg>
